<svg width="36" height="22" viewBox="0 0 36 22" fill="none" xmlns="http://www.w3.org/2000/svg">
<path d="M17.9876 21.3238C17.6082 21.3238 17.2288 21.3129 16.8474 21.2923C10.1756 20.9191 4.0324 17.3487 0.413321 11.741C0.00313613 11.1055 0.185973 10.2577 0.821451 9.84755C1.4583 9.43737 2.30469 9.62089 2.71488 10.2557C5.8594 15.13 11.2 18.2334 17.0001 18.5573C23.2426 18.9086 29.3536 15.9257 32.9336 10.7775C33.0528 10.6063 33.1692 10.4324 33.2829 10.2557C33.6924 9.6202 34.5395 9.43737 35.1763 9.84687C35.8118 10.2571 35.9946 11.1041 35.5851 11.7403C35.455 11.9423 35.3208 12.1423 35.1832 12.3402C31.2826 17.9499 24.7745 21.3238 17.9876 21.3238Z" fill="#1148EB"/>
<path d="M34.4356 12.3675C33.9857 12.3675 33.5453 12.1463 33.2831 11.7402C30.1385 6.86595 24.7979 3.76251 18.9978 3.43861C12.7464 3.08184 6.64365 6.07023 3.06429 11.2184C2.94514 11.3896 2.82873 11.5636 2.71505 11.7402C2.30555 12.3757 1.45779 12.5585 0.82163 12.149C0.186152 11.7389 0.00331467 10.8918 0.412815 10.2556C0.542923 10.0536 0.677141 9.85366 0.814782 9.65575C4.93375 3.73238 11.9562 0.310526 19.1505 0.703591C25.8224 1.0768 31.9655 4.64725 35.5846 10.2549C35.9948 10.8904 35.812 11.7382 35.1765 12.1484C34.9471 12.297 34.6896 12.3675 34.4356 12.3675Z" fill="#1148EB"/>
<path d="M18.0007 16.4762C14.9801 16.4762 12.5225 14.0185 12.5225 10.9979C12.5225 7.97734 14.9801 5.51965 18.0007 5.51965C21.0213 5.51965 23.479 7.97734 23.479 10.9979C23.479 14.0185 21.0213 16.4762 18.0007 16.4762ZM18.0007 8.25878C16.5161 8.25878 15.2616 9.51331 15.2616 10.9979C15.2616 12.4825 16.5161 13.737 18.0007 13.737C19.4853 13.737 20.7399 12.4825 20.7399 10.9979C20.7399 9.51331 19.4853 8.25878 18.0007 8.25878Z" fill="#1148EB"/>
</svg>