<svg width="24" height="26" viewBox="0 0 24 26" fill="none" xmlns="http://www.w3.org/2000/svg">
<path d="M16.4856 3.73733C15.9695 3.51188 15.3685 3.74746 15.143 4.2635C14.9176 4.77954 15.1532 5.3806 15.6692 5.60604C18.9867 7.05537 21.1765 10.3366 21.1765 14.0195C21.1765 19.0874 17.0675 23.1961 11.9999 23.1961C6.9317 23.1961 2.82338 19.0878 2.82338 14.0195C2.82338 10.3374 5.01237 7.05618 8.32892 5.6059C8.84486 5.38031 9.08025 4.77915 8.85461 4.26321C8.62902 3.74727 8.02787 3.51188 7.51192 3.73752C3.45948 5.5095 0.78418 9.51974 0.78418 14.0195C0.78418 20.214 5.80552 25.2353 12 25.2353C18.1938 25.2353 23.2158 20.2136 23.2158 14.0195C23.2158 9.51869 20.5394 5.50826 16.4856 3.73733Z" fill="#8691A0"/>
<path d="M11.9991 11.9805C12.5622 11.9805 13.0187 11.524 13.0187 10.9609V1.78436C13.0187 1.22119 12.5622 0.764709 11.9991 0.764709C11.436 0.764709 10.9795 1.22119 10.9795 1.78431V10.9609C10.9795 11.524 11.436 11.9805 11.9991 11.9805Z" fill="#8691A0"/>
</svg>