<?xml version="1.0" encoding="UTF-8"?>
<svg width="26px" height="26px" viewBox="0 0 26 26" version="1.1" xmlns="http://www.w3.org/2000/svg" xmlns:xlink="http://www.w3.org/1999/xlink">
    <!-- Generator: Sketch 59 (86127) - https://sketch.com -->
    <title>icon / notification / inactive</title>
    <desc>Created with Sketch.</desc>
    <g id="icon-/-notification-/-inactive" stroke="none" stroke-width="1" fill="none" fill-rule="evenodd">
        <g id="bell" transform="translate(3.000000, 0.000000)" fill="#81889D" fill-rule="nonzero">
            <path d="M6.84181712,22.2806306 C6.84176204,22.2872402 6.8413214,22.2937947 6.8413214,22.3004043 C6.8413214,23.9571005 8.18433701,25.3001161 9.84103321,25.3001161 C11.4977294,25.3001161 12.840745,23.9571005 12.840745,22.3004043 C12.840745,22.2937947 12.8403044,22.2872402 12.8402493,22.2806306 L6.84181712,22.2806306 Z" id="Path"></path>
            <path d="M19.4183985,18.5310046 L16.7186523,14.5651345 C16.7186523,13.3511163 16.7186523,10.3846728 16.7186523,9.61729825 C16.7186523,6.28049685 14.3422809,3.49906708 11.189667,2.87225669 L11.189667,1.34863377 C11.1896119,0.603842026 10.5858249,0 9.84097813,0 C9.0961313,0 8.49234436,0.603842026 8.49234436,1.34863377 L8.49234436,2.87231177 C5.33973047,3.49917724 2.96335901,6.28060701 2.96335901,9.61735333 C2.96335901,10.9236306 2.96335901,13.80806 2.96335901,14.5651896 L0.263612874,18.5310597 C-0.0207651595,18.9487864 -0.0508388388,19.4895067 0.185454356,19.9362055 C0.42174755,20.3829043 0.885631299,20.6622701 1.39099029,20.6622701 L18.290966,20.6622701 C18.796325,20.6622701 19.2602087,20.3828492 19.4965019,19.9362055 C19.7328502,19.4894517 19.7027214,18.9487313 19.4183985,18.5310046 Z" id="Path"></path>
        </g>
    </g>
</svg>