<svg width="26" height="26" viewBox="0 0 26 26" fill="none" xmlns="http://www.w3.org/2000/svg">
<path d="M13.0163 18.4167C10.0296 18.4167 7.59961 15.9868 7.59961 13C7.59961 10.0132 10.0296 7.58325 13.0163 7.58325C16.0029 7.58325 18.4329 10.0132 18.4329 13C18.4329 15.9868 16.0029 18.4167 13.0163 18.4167V18.4167ZM13.0163 9.20825C10.9254 9.20825 9.22461 10.9092 9.22461 13C9.22461 15.0907 10.9254 16.7917 13.0163 16.7917C15.1071 16.7917 16.8079 15.0907 16.8079 13C16.8079 10.9092 15.1071 9.20825 13.0163 9.20825V9.20825Z" fill="#8691A0"/>
<path d="M14.8176 26H11.2143C10.3477 26 9.5818 25.3847 9.39336 24.5365L8.93732 22.5084C8.19405 22.1932 7.48549 21.7816 6.82037 21.2789L4.84546 21.9028C3.99824 22.166 3.07744 21.8064 2.65274 21.048L0.856749 17.9422C0.426497 17.173 0.5717 16.2262 1.20448 15.6303L2.73506 14.2231C2.68864 13.8103 2.66583 13.4009 2.66583 13C2.66583 12.5991 2.68864 12.1897 2.73407 11.7769L1.21202 10.3762C0.5717 9.7738 0.425505 8.82701 0.851195 8.06767L2.65829 4.94225C3.07744 4.19243 4.00043 3.83617 4.84228 4.09503L6.82037 4.72008C7.48549 4.21742 8.19405 3.80582 8.93732 3.49042L9.39435 1.46036C9.5818 0.615326 10.3477 0 11.2143 0H14.8176C15.6843 0 16.4502 0.615326 16.6386 1.46353L17.0947 3.49161C17.8379 3.80681 18.5465 4.21841 19.2116 4.72107L21.1865 4.09721C22.0359 3.83617 22.9545 4.19362 23.3792 4.95197L25.1754 8.05775C25.6055 8.82701 25.4603 9.7738 24.8275 10.3697L23.2969 11.7769C23.3423 12.1897 23.3651 12.6003 23.3651 13C23.3651 13.3997 23.3423 13.8103 23.2969 14.2231L24.8199 15.6228C24.8221 15.625 24.8243 15.6271 24.8275 15.6293C25.4603 16.225 25.6065 17.172 25.1808 17.9313L23.3737 21.0568C22.9545 21.8064 22.0337 22.165 21.1887 21.9028L19.2104 21.2777C18.5453 21.7804 17.8367 22.192 17.0937 22.5074L16.6364 24.5375C16.4502 25.3847 15.6843 26 14.8176 26V26ZM6.98621 19.5639C7.17247 19.5639 7.35556 19.6277 7.50294 19.7491C8.24721 20.3613 9.05852 20.8336 9.91763 21.15C10.1765 21.2452 10.3683 21.4652 10.429 21.7338L10.9805 24.1822C11.0053 24.2949 11.1039 24.375 11.2155 24.375H14.8186C14.9303 24.375 15.0289 24.2949 15.0527 24.1844L15.6051 21.7338C15.6658 21.4652 15.8577 21.2452 16.1165 21.15C16.9744 20.8336 17.7869 20.3613 18.5312 19.7491C18.7437 19.5736 19.0295 19.5173 19.2929 19.6008L21.6773 20.3538C21.7909 20.3895 21.9123 20.3472 21.9643 20.254L23.7714 17.1286C23.8255 17.0322 23.8059 16.9 23.7194 16.8155L21.8907 15.1342C21.6923 14.9521 21.5971 14.6823 21.6372 14.4159C21.7086 13.9361 21.7445 13.4594 21.7445 12.999C21.7445 12.5384 21.7086 12.0617 21.6372 11.5819C21.5971 11.3155 21.6923 11.0467 21.8907 10.8636L23.7236 9.17792C23.8059 9.10115 23.8255 8.96666 23.7658 8.85954L21.9697 5.75356C21.9113 5.6506 21.7878 5.60954 21.6751 5.64525L19.2939 6.39705C19.0317 6.48056 18.7458 6.42422 18.5324 6.24867C17.7881 5.63652 16.9766 5.16422 16.1175 4.84782C15.8586 4.75261 15.6668 4.53262 15.6063 4.26404L15.0549 1.81563C15.0277 1.70514 14.9291 1.625 14.8176 1.625H11.2143C11.1029 1.625 11.0043 1.70514 10.9805 1.81563L10.4278 4.26622C10.3673 4.53481 10.1755 4.7536 9.91664 4.85001C9.05852 5.1664 8.24602 5.6387 7.50294 6.25085C7.2895 6.42641 7.00128 6.48155 6.74142 6.39923L4.35689 5.64624C4.24541 5.61172 4.12183 5.65279 4.06985 5.74602L2.26276 8.87025C2.2086 8.96785 2.22824 9.10214 2.3181 9.18665L4.14464 10.8648C4.3428 11.0467 4.43822 11.3165 4.39815 11.5831C4.32654 12.0629 4.29083 12.5396 4.29083 13C4.29083 13.4604 4.32654 13.9371 4.39815 14.4169C4.43822 14.6835 4.3428 14.9521 4.14464 15.1352L2.31155 16.8209C2.22923 16.8979 2.20979 17.0322 2.2693 17.1395L4.06549 20.2453C4.12282 20.3482 4.2464 20.3883 4.36006 20.3538L6.74142 19.6018C6.82156 19.5758 6.90388 19.5639 6.98621 19.5639V19.5639Z" fill="#8691A0"/>
</svg>