<?xml version="1.0" encoding="UTF-8"?>
<svg width="100px" height="100px" viewBox="0 0 100 100" version="1.1" xmlns="http://www.w3.org/2000/svg" xmlns:xlink="http://www.w3.org/1999/xlink">
    <!-- Generator: Sketch 59 (86127) - https://sketch.com -->
    <title>BSC-logo</title>
    <desc>Created with Sketch.</desc>
    <g id="BSC-logo" stroke="none" stroke-width="1" fill="none" fill-rule="evenodd">
        <path d="M66.6457031,56.9354969 L76.3549688,66.6451656 L50,93 L23.6457031,66.6451656 L33.3549688,56.9354969 L50,73.5806625 L66.6457031,56.9354969 Z M16.7099375,40.2903312 L26.419875,50 L16.7099375,59.7097359 L7,50 L16.7099375,40.2903312 Z M83.2907344,40.2903312 L93,50 L83.2907344,59.7096687 L73.5807969,50 L83.2907344,40.2903312 Z M50,40.2903312 L59.7099375,50 L50,59.7097359 L40.2907344,50 L50,40.2903312 Z M50,7 L76.3549688,33.3548344 L66.6457031,43.0645031 L50,26.4193375 L33.3549688,43.0645031 L23.6457031,33.3548344 L50,7 Z" id="Combined-Shape" fill="#F0B90B" fill-rule="nonzero"></path>
    </g>
</svg>