<svg width="10" height="10" viewBox="0 0 10 10" fill="none" xmlns="http://www.w3.org/2000/svg">
<path opacity="0.4" d="M5 0C7.757 0 10 2.24303 10 5.00003C10 7.75703 7.757 10 5 10C2.243 10 0 7.75703 0 5.00003C0 2.24303 2.243 0 5 0ZM5 9.09091C7.25576 9.09091 9.09091 7.25576 9.09091 5.00003C9.09091 2.7443 7.25576 0.909091 5 0.909091C2.74424 0.909091 0.909091 2.7443 0.909091 5.00003C0.909091 7.25576 2.74427 9.09091 5 9.09091Z" fill="#565E76"/>
<path opacity="0.4" d="M4.99953 2.12122C5.33365 2.12122 5.60547 2.39322 5.60547 2.72755C5.60547 3.06158 5.33365 3.33334 4.99953 3.33334C4.66541 3.33334 4.39359 3.06158 4.39359 2.72755C4.39359 2.39322 4.66541 2.12122 4.99953 2.12122Z" fill="#565E76"/>
<path opacity="0.4" d="M4.99858 4.24243C5.24961 4.24243 5.45312 4.44595 5.45312 4.69698V7.42425C5.45312 7.67528 5.24961 7.8788 4.99858 7.8788C4.74755 7.8788 4.54403 7.67528 4.54403 7.42425V4.69698C4.54403 4.44595 4.74755 4.24243 4.99858 4.24243Z" fill="#565E76"/>
</svg>