<svg width="88" height="88" viewBox="0 0 88 88" fill="none" xmlns="http://www.w3.org/2000/svg">
<path d="M65.3125 30.371C64.124 25.62 61.3823 21.4023 57.5227 18.3875C53.6632 15.3728 48.9071 13.7339 44.0097 13.731C39.1123 13.7282 34.3543 15.3616 30.4913 18.3718C26.6282 21.3821 23.8816 25.5966 22.6875 30.3463C17.0551 30.8749 11.8427 33.5529 8.13314 37.8241C4.42357 42.0953 2.50195 47.6314 2.76742 53.2824C3.03289 58.9334 5.46505 64.2649 9.5587 68.1695C13.6523 72.0742 19.0928 74.2518 24.75 74.25H33C33.7294 74.25 34.4289 73.9603 34.9446 73.4446C35.4603 72.9288 35.75 72.2294 35.75 71.5C35.75 70.7707 35.4603 70.0712 34.9446 69.5555C34.4289 69.0397 33.7294 68.75 33 68.75H24.75C22.5832 68.7563 20.4364 68.3358 18.4321 67.5124C16.4278 66.6891 14.6053 65.479 13.0687 63.9513C9.9653 60.866 8.21468 56.6742 8.20191 52.2981C8.18915 47.9221 9.9153 43.7202 13.0006 40.6168C16.0859 37.5134 20.2777 35.7628 24.6538 35.75C25.3594 35.8031 26.0596 35.5923 26.6186 35.1583C27.1775 34.7244 27.5553 34.0983 27.6788 33.4015C28.2388 29.4747 30.1966 25.8817 33.1929 23.2824C36.1891 20.6832 40.0225 19.2521 43.989 19.2521C47.9556 19.2521 51.789 20.6832 54.7852 23.2824C57.7814 25.8817 59.7393 29.4747 60.2993 33.4015C60.4431 34.0741 60.8159 34.6759 61.3541 35.1042C61.8922 35.5325 62.5623 35.7608 63.25 35.75C67.6261 35.75 71.823 37.4884 74.9173 40.5828C78.0117 43.6771 79.75 47.8739 79.75 52.25C79.75 56.6261 78.0117 60.8229 74.9173 63.9173C71.823 67.0116 67.6261 68.75 63.25 68.75H55C54.2707 68.75 53.5712 69.0397 53.0555 69.5555C52.5398 70.0712 52.25 70.7707 52.25 71.5C52.25 72.2294 52.5398 72.9288 53.0555 73.4446C53.5712 73.9603 54.2707 74.25 55 74.25H63.25C68.8659 74.1912 74.2466 71.987 78.2896 68.0889C82.3327 64.1908 84.7318 58.8941 84.9955 53.2842C85.2592 47.6742 83.3675 42.1758 79.7079 37.9157C76.0483 33.6556 70.8981 30.9563 65.3125 30.371Z" fill="#D5E4F9"/>
<path d="M55.8061 54.1943C56.3248 54.6952 57.0194 54.9724 57.7405 54.9661C58.4615 54.9598 59.1513 54.6706 59.6611 54.1608C60.171 53.6509 60.4602 52.9611 60.4665 52.2401C60.4728 51.5191 60.1956 50.8244 59.6946 50.3057L45.9446 36.5558C45.4289 36.0402 44.7296 35.7506 44.0004 35.7506C43.2712 35.7506 42.5718 36.0402 42.0561 36.5558L28.3061 50.3057C27.8052 50.8244 27.528 51.5191 27.5343 52.2401C27.5405 52.9611 27.8298 53.6509 28.3396 54.1608C28.8495 54.6706 29.5392 54.9598 30.2603 54.9661C30.9813 54.9724 31.676 54.6952 32.1946 54.1943L41.2504 45.1385V79.75C41.2504 80.4793 41.5401 81.1788 42.0558 81.6945C42.5716 82.2103 43.271 82.5 44.0004 82.5C44.7297 82.5 45.4292 82.2103 45.9449 81.6945C46.4607 81.1788 46.7504 80.4793 46.7504 79.75V45.1385L55.8061 54.1943Z" fill="#D5E4F9"/>
</svg>
