<?xml version="1.0" encoding="utf-8"?>
<!-- Generator: Adobe Illustrator 27.3.1, SVG Export Plug-In . SVG Version: 6.00 Build 0)  -->
<svg version="1.1" id="Layer_1" xmlns="http://www.w3.org/2000/svg" xmlns:xlink="http://www.w3.org/1999/xlink" x="0px" y="0px"
	 viewBox="0 0 345.7 104" style="enable-background:new 0 0 345.7 104;" xml:space="preserve">
<style type="text/css">
	.st0{fill-rule:evenodd;clip-rule:evenodd;fill:#5158FA;}
	.st1{fill-rule:evenodd;clip-rule:evenodd;fill:#2A3039;}
</style>
<g id="LOGOS">
	<g id="Effect-Network-logo-color" transform="translate(-0.000400, 0.000635)">
		<path id="Combined-Shape" class="st0" d="M334.2,68.4c0,0.2-0.1,0.3-0.3,0.3l0,0h-5.5c-0.1,0-0.2,0-0.3-0.1l0,0l-8.5-26.8
			c-0.2-0.2-0.4-0.1-0.5,0l0,0l-8,26.7c0,0.2-0.1,0.3-0.3,0.3l0,0h-5.3c-0.2,0-0.3-0.1-0.3-0.3l0,0l11-33.7c0.1-0.2,0.1-0.3,0.3-0.3
			l0,0h5.4c0.1,0,0.2,0.1,0.3,0.1l0,0 M345.7,68.4c0,0.2-0.1,0.3-0.3,0.3l0,0h-5.6c-0.2,0-0.3-0.1-0.3-0.3l0,0V34.6
			c0-0.2,0.1-0.3,0.3-0.3l0,0h5.4c0.2,0,0.3,0.1,0.3,0.3l0,0 M315,55.3h8.9l1.4,4.3h-11.6"/>
		<path id="Combined-Shape_00000003796352735072426440000001816576098834320558_" class="st1" d="M244.8,33.7
			c6.3,0,11.9,3.6,14.1,8.8c0.1,0.2-0.1,0.4-0.3,0.4l0,0H252c-0.4,0-0.7-0.2-1-0.4c-1.6-1.8-3.8-2.9-6.3-2.9
			c-5.9,0-10.3,4.9-10.3,11.8c0,6.7,4.5,11.8,10.5,11.8c2.6,0,4.9-1,6.5-2.8c0.2-0.3,0.6-0.4,0.9-0.4l0,0h6.4c0.2,0,0.4,0.2,0.3,0.4
			c-2.4,5.3-7.8,8.8-14.1,8.8c-9.7,0-16.7-7.5-16.7-17.7C228.2,41.2,235.2,33.7,244.8,33.7z M136.4,34.3c0.2,0,0.3,0.1,0.3,0.3l0,0
			v5.1c0,0.2-0.1,0.3-0.3,0.3l0,0h-18.1c-0.2,0-0.3,0.1-0.3,0.3l0,0v6.9c0,0.7,0.6,1.3,1.3,1.3l0,0h14.5c0.2,0,0.3,0.1,0.3,0.3l0,0
			V54c0,0.2-0.1,0.3-0.3,0.3l0,0h-14.5c-0.7,0-1.3,0.6-1.3,1.3l0,0v6.9c0,0.2,0.1,0.3,0.3,0.3l0,0h18.3c0.2,0,0.3,0.1,0.3,0.3l0,0
			v5.2c0,0.2-0.1,0.3-0.3,0.3l0,0h-24.2c-0.2,0-0.3-0.1-0.3-0.3l0,0V34.6c0-0.2,0.1-0.3,0.3-0.3l0,0H136.4z M165.7,34.3
			c0.2,0,0.3,0.1,0.3,0.3l0,0v5.1c0,0.2-0.1,0.3-0.3,0.3l0,0h-17.3c-0.2,0-0.3,0.1-0.3,0.3l0,0V48c0,0.7,0.6,1.3,1.3,1.3l0,0h14.1
			c0.2,0,0.3,0.1,0.3,0.3l0,0v5.2c0,0.2-0.1,0.3-0.3,0.3l0,0h-14.1c-0.7,0-1.3,0.6-1.3,1.3l0,0v12c0,0.2-0.1,0.3-0.3,0.3l0,0h-5.3
			c-0.2,0-0.3-0.1-0.3-0.3l0,0V34.6c0-0.2,0.1-0.3,0.3-0.3l0,0H165.7z M194.2,34.3c0.2,0,0.3,0.1,0.3,0.3l0,0v5.1
			c0,0.2-0.1,0.3-0.3,0.3l0,0h-17.3c-0.2,0-0.3,0.1-0.3,0.3l0,0V48c0,0.7,0.6,1.3,1.3,1.3l0,0H192c0.2,0,0.3,0.1,0.3,0.3l0,0v5.2
			c0,0.2-0.1,0.3-0.3,0.3l0,0h-14.1c-0.7,0-1.3,0.6-1.3,1.3l0,0v12c0,0.2-0.1,0.3-0.3,0.3l0,0h-5.3c-0.2,0-0.3-0.1-0.3-0.3l0,0V34.6
			c0-0.2,0.1-0.3,0.3-0.3l0,0H194.2z M223.5,34.3c0.2,0,0.3,0.1,0.3,0.3l0,0v5.1c0,0.2-0.1,0.3-0.3,0.3l0,0h-18.1
			c-0.2,0-0.3,0.1-0.3,0.3l0,0v6.9c0,0.7,0.6,1.3,1.3,1.3l0,0h14.5c0.2,0,0.3,0.1,0.3,0.3l0,0V54c0,0.2-0.1,0.3-0.3,0.3l0,0h-14.5
			c-0.7,0-1.3,0.6-1.3,1.3l0,0v6.9c0,0.2,0.1,0.3,0.3,0.3l0,0h18.3c0.2,0,0.3,0.1,0.3,0.3l0,0v5.2c0,0.2-0.1,0.3-0.3,0.3l0,0h-24.2
			c-0.2,0-0.3-0.1-0.3-0.3l0,0V34.6c0-0.2,0.1-0.3,0.3-0.3l0,0H223.5z M291.9,34.3c0.2,0,0.3,0.1,0.3,0.3l0,0v5.2
			c0,0.2-0.1,0.3-0.3,0.3l0,0h-10.2c-0.7,0-1.3,0.6-1.3,1.3l0,0v26.9c0,0.2-0.1,0.3-0.3,0.3l0,0h-5.3c-0.2,0-0.3-0.1-0.3-0.3l0,0
			V41.4c0-0.7-0.6-1.3-1.3-1.3l0,0h-10.3c-0.2,0-0.3-0.1-0.3-0.3l0,0v-5.2c0-0.2,0.1-0.3,0.3-0.3l0,0H291.9z"/>
		<path id="Combined-Shape_00000042728533103143739220000001200058356187739030_" class="st0" d="M42.1,0.1c0.6-0.1,1.2,0.4,1.2,1
			l0,0v9.4c0,0.3,0.3,0.6,0.6,0.5c2.7-0.6,5.5-0.9,8.4-0.9c1.5,0,2.9,0.1,4.3,0.2c1.6,0.2,3.2,0.4,4.8,0.8c0.5,0.1,0.8,0.5,0.8,1
			l0,0v15.1c0,0.7-0.7,1.2-1.4,1c-1.3-0.5-2.7-0.9-4.2-1.1c-1.4-0.2-2.8-0.4-4.3-0.4c-12.5,0-22.9,9.3-24.6,21.4
			c0,0.3,0.2,0.6,0.5,0.6l0,0h4.5c0.2,0,0.5-0.2,0.5-0.4c1.3-7.8,7.3-14,15-15.7c0.6-0.1,1.3,0.3,1.3,1l0,0v3.6c0,0.5-0.3,0.9-0.8,1
			c-5.9,1.6-10.2,6.9-10.2,13.3c0,6.4,4.3,11.7,10.2,13.3c0.5,0.1,0.8,0.5,0.8,1l0,0v14.8c0,0.6-0.5,1.1-1.1,1
			C33.6,79.7,22,66.9,22,51.5c0-16.7,13.6-30.3,30.3-30.3c1.3,0,2.5,0.1,3.7,0.2c0.3,0,0.6-0.2,0.6-0.5l0,0v-4.5
			c0-0.3-0.2-0.5-0.5-0.5c-1.3-0.1-2.6-0.2-3.9-0.2c-19.8,0-35.8,16.1-35.8,35.8c0,20.6,17.5,37.2,38.4,35.7
			C72.6,86,86.9,71.7,88.1,54.1c1.1-15.1-7.3-28.4-19.7-34.6c-0.3-0.2-0.6-0.5-0.6-0.9l0,0v-4.7c0-0.4,0.4-0.6,0.7-0.5
			c14.8,6.3,25.2,21,25.2,38.1c0,19.3-13.2,35.5-31.1,40.1c-0.2,0.1-0.4,0.3-0.4,0.5l0,0v10c0,0.5-0.4,0.9-0.8,1
			c-1.5,0.3-3.1,0.5-4.7,0.6c-1.4,0.1-2.9,0.2-4.3,0.2C23.5,103.9,0,80.4,0,51.5c0-23.8,16-44,37.8-50.3C39.2,0.8,40.7,0.4,42.1,0.1
			z M10.6,54.3H6.2c-0.3,0-0.5,0.3-0.5,0.6c1.7,24.3,22,43.5,46.7,43.5c1.3,0,2.6-0.1,3.8-0.2c0.3,0,0.5-0.2,0.5-0.5l0,0v-4.5
			c0-0.3-0.3-0.5-0.6-0.5c-1.2,0.1-2.5,0.2-3.8,0.2c-21.7,0-39.6-16.8-41.2-38.1C11.1,54.5,10.9,54.3,10.6,54.3L10.6,54.3z
			 M32.9,54.3h-4.5c-0.3,0-0.6,0.3-0.5,0.6c1.2,9,7.3,16.5,15.5,19.7c0.3,0.1,0.7-0.1,0.7-0.5l0,0v-4.6c0-0.4-0.2-0.7-0.6-0.9
			c-5.3-2.7-9.1-7.9-10.1-13.9C33.3,54.5,33.1,54.3,32.9,54.3L32.9,54.3z M55.2,33.6c0-0.7,0.6-1.1,1.3-1
			c8.7,1.9,15.3,9.6,15.3,18.9s-6.6,17-15.3,18.9c-0.6,0.1-1.3-0.3-1.3-1l0,0v-3.6c0-0.5,0.3-0.9,0.8-1c4.8-1.3,8.5-5.1,9.8-9.9
			c0.1-0.3-0.2-0.6-0.5-0.6l0,0h-4.7c-0.2,0-0.4,0.1-0.5,0.3c-1.2,3-4.2,5.2-7.7,5.2c-5.1,0-9.2-4.7-8.1-10c0.6-3.2,3.2-5.8,6.4-6.5
			c4.2-0.8,8,1.5,9.4,5c0.1,0.2,0.3,0.3,0.5,0.3l0,0h4.7c0.3,0,0.6-0.3,0.5-0.6c-1.2-4.8-5-8.6-9.8-9.9c-0.5-0.1-0.8-0.5-0.8-1l0,0
			V33.6z M52.4,48.8c-1.5,0-2.7,1.2-2.7,2.7s1.2,2.7,2.7,2.7c1.5,0,2.7-1.2,2.7-2.7S53.9,48.8,52.4,48.8z M37.8,7.7
			c0-0.4-0.4-0.6-0.7-0.5C19.8,13.2,7,29.1,5.7,48.2c0,0.3,0.2,0.6,0.5,0.6l0,0h4.5c0.3,0,0.5-0.2,0.5-0.5
			C12.4,32.1,23,18.5,37.5,12.9c0.2-0.1,0.3-0.3,0.3-0.5l0,0V7.7z"/>
	</g>
</g>
</svg>
