<!--?xml version="1.0" encoding="UTF-8"?-->
<svg xmlns="http://www.w3.org/2000/svg" xmlns:xlink="http://www.w3.org/1999/xlink" width="110px" height="110px" viewBox="0 0 110 110" version="1.1" style="">
    <g id="LOGOS" stroke="none" stroke-width="1" fill="none" fill-rule="evenodd">
        <g id="Group-29" transform="translate(2 2)"> 
            <path d="M69.0254,13.2508 C68.5844,13.0668 68.0834,13.1168 67.6834,13.3838 C67.2754,13.6558 67.0324,14.1088 67.0324,14.5978 L67.0324,17.3298 C67.0324,17.8948 67.3684,18.4098 67.8874,18.6448 C81.2374,24.6468 89.8634,37.9738 89.8634,52.5978 C89.8634,62.4838 86.0104,71.6358 79.4634,78.4188 C75.7524,72.1768 70.0784,67.4208 63.3274,64.9358 C70.9214,60.1658 75.2244,51.4598 74.3474,42.4818 C73.3694,32.4598 66.1614,24.1548 56.4104,21.8168 C48.8874,20.0138 41.2284,21.8298 35.3924,26.8008 C35.0684,27.0768 34.8824,27.4828 34.8824,27.9148 L34.8824,32.9328 C34.8824,33.3408 35.1304,33.6908 35.5144,33.8258 C35.8924,33.9598 36.3114,33.8428 36.5694,33.5218 C40.9584,28.0268 47.9724,25.5908 54.8814,27.1608 C62.5304,28.9018 68.2784,35.6088 68.8614,43.4718 C69.2414,48.5778 67.5364,53.4508 64.0614,57.1928 C60.6304,60.8878 55.7824,63.0068 50.7564,63.0068 L49.7464,63.0108 L49.7464,63.0158 C41.1834,63.1768 32.9774,66.8898 27.1724,73.2458 C26.8414,73.6078 26.8374,74.1598 27.1614,74.5288 C27.9794,75.4598 28.8564,76.3628 29.7664,77.2138 C29.9544,77.3888 30.2184,77.4738 30.4514,77.4678 C30.7074,77.4568 30.9524,77.3408 31.1244,77.1488 C36.0264,71.6888 43.0254,68.5578 50.3274,68.5578 L52.5204,68.5578 C62.0514,68.5578 70.7154,73.7658 75.2424,82.1668 C72.6144,84.1668 69.7044,85.8588 66.5244,87.1378 C65.1394,87.6938 63.7064,88.1718 62.2664,88.5568 C61.6294,88.7248 61.1844,89.2998 61.1844,89.9528 L61.1844,98.6008 C61.1844,98.8698 60.9894,99.1058 60.7304,99.1508 C58.0684,99.6108 55.3484,99.8438 52.6464,99.8438 C26.5944,99.8438 5.4004,78.6488 5.4004,52.5978 C5.4004,49.8668 5.6414,47.1048 6.1184,44.3848 C9.4974,25.1148 24.6854,9.7538 43.9764,6.2158 L43.9764,14.6068 C43.9764,15.0378 44.1674,15.4418 44.4984,15.7168 C44.8354,15.9968 45.2764,16.1098 45.7104,16.0278 C46.9634,15.7918 48.2464,15.6188 49.5214,15.5128 C53.3674,15.1908 57.0744,15.4558 60.7094,16.2608 C61.1534,16.3588 61.6004,16.2538 61.9464,15.9758 C62.2874,15.7008 62.4834,15.2918 62.4834,14.8528 L62.4834,12.3158 C62.4834,11.6288 61.9994,11.0288 61.3314,10.8908 C58.4364,10.2868 55.5144,9.9798 52.6464,9.9798 C51.7784,9.9798 50.2554,10.0628 49.3774,10.0658 L49.3774,1.4488 C49.3774,1.0198 49.1884,0.6148 48.8604,0.3388 C48.5334,0.0628 48.0994,-0.0502 47.6784,0.0208 L43.5804,0.7318 C21.8094,4.5148 4.6174,21.6828 0.7984,43.4508 C0.2684,46.4768 0.0004,49.5538 0.0004,52.5978 C0.0004,81.6268 23.6174,105.2438 52.6464,105.2438 C55.9624,105.2438 59.2984,104.9288 62.5614,104.3068 L65.4074,103.7638 C66.0894,103.6328 66.5854,103.0338 66.5854,102.3398 L66.5854,93.2638 C66.5854,93.0338 66.7334,92.8278 66.9534,92.7488 C67.4864,92.5598 68.0154,92.3578 68.5394,92.1478 C84.7734,85.6198 95.2634,70.0958 95.2634,52.5978 C95.2634,35.3138 84.9634,19.8698 69.0254,13.2508" id="Fill-15" stroke-width="2" stroke="#0A7CFF" class="YeRjqnVk_0"></path>
            <path d="M50.3008,36.5106 C50.8088,36.4836 51.2068,36.0696 51.2068,35.5686 L51.2068,31.9146 C51.2068,31.6566 51.0998,31.4036 50.9118,31.2236 C50.7248,31.0426 50.4518,30.9426 50.2228,30.9586 C46.3838,31.1046 42.7388,32.8646 40.2198,35.7906 C37.6708,38.7506 36.5068,42.5326 36.9428,46.4396 C37.6548,52.8126 42.7968,57.9536 49.1698,58.6646 C49.7068,58.7246 50.2408,58.7546 50.7718,58.7546 C54.0998,58.7546 57.2648,57.5856 59.8188,55.3876 C62.7428,52.8686 64.5038,49.2236 64.6498,45.3866 C64.6598,45.1286 64.5658,44.8836 64.3848,44.6966 C64.2048,44.5086 63.9528,44.4016 63.6948,44.4016 L60.0398,44.4016 C59.5378,44.4016 59.1238,44.7996 59.0988,45.3076 C58.8598,49.7086 55.1388,53.2036 50.7488,53.2036 C50.6718,53.2036 50.5938,53.2026 50.5158,53.1996 C46.3898,53.0826 42.5258,49.2196 42.4078,45.0936 C42.2798,40.6036 45.8218,36.7526 50.3008,36.5106" id="Fill-13" stroke-width="2" stroke="#0A7CFF" class="YeRjqnVk_1"></path>
            <path d="M15.3203,61.8045 L11.9243,61.8045 C11.6293,61.8045 11.3543,61.9385 11.1723,62.1725 C10.9893,62.4055 10.9243,62.7015 10.9963,62.9885 C15.7403,82.1535 32.8573,95.5385 52.6233,95.5385 C53.4883,95.5385 54.4243,95.5025 55.4813,95.4295 C55.9783,95.3965 56.3683,94.9785 56.3683,94.4795 L56.3683,90.8205 C56.3683,90.5575 56.2583,90.3035 56.0643,90.1255 C55.8723,89.9475 55.6093,89.8565 55.3463,89.8765 C54.3503,89.9515 53.4593,89.9885 52.6233,89.9885 C36.0083,89.9885 21.2393,78.8325 16.7073,62.8615 C16.5303,62.2395 15.9603,61.8045 15.3203,61.8045" id="Fill-11" stroke-width="2" stroke="#0A7CFF" class="YeRjqnVk_2"></path>
        </g>
    </g>
<style data-made-with="vivus-instant">.YeRjqnVk_0{stroke-dasharray:863 865;stroke-dashoffset:864;animation:YeRjqnVk_draw_0 6200ms linear 0ms infinite,YeRjqnVk_fade 6200ms linear 0ms infinite;}.YeRjqnVk_1{stroke-dasharray:116 118;stroke-dashoffset:117;animation:YeRjqnVk_draw_1 6200ms linear 0ms infinite,YeRjqnVk_fade 6200ms linear 0ms infinite;}.YeRjqnVk_2{stroke-dasharray:125 127;stroke-dashoffset:126;animation:YeRjqnVk_draw_2 6200ms linear 0ms infinite,YeRjqnVk_fade 6200ms linear 0ms infinite;}@keyframes YeRjqnVk_draw{100%{stroke-dashoffset:0;}}@keyframes YeRjqnVk_fade{0%{stroke-opacity:1;}96.7741935483871%{stroke-opacity:1;}100%{stroke-opacity:0;}}@keyframes YeRjqnVk_draw_0{8.064516129032258%{stroke-dashoffset: 864}61.82795698924731%{ stroke-dashoffset: 0;}100%{ stroke-dashoffset: 0;}}@keyframes YeRjqnVk_draw_1{21.505376344086024%{stroke-dashoffset: 117}75.26881720430106%{ stroke-dashoffset: 0;}100%{ stroke-dashoffset: 0;}}@keyframes YeRjqnVk_draw_2{34.946236559139784%{stroke-dashoffset: 126}88.70967741935483%{ stroke-dashoffset: 0;}100%{ stroke-dashoffset: 0;}}</style></svg>