<?xml version="1.0" encoding="UTF-8"?>
<svg width="256px" height="106px" viewBox="0 0 256 106" version="1.1" xmlns="http://www.w3.org/2000/svg" xmlns:xlink="http://www.w3.org/1999/xlink">
    <!-- Generator: Sketch 59 (86127) - https://sketch.com -->
    <title>Group 29</title>
    <desc>Created with Sketch.</desc>
    <g id="LOGOS" stroke="none" stroke-width="1" fill="none" fill-rule="evenodd">
        <g id="Group-29">
            <path d="M115.3232,65.8563 L115.3232,73.7653 C115.3232,74.0423 115.5472,74.2653 115.8232,74.2653 L127.4812,74.2653 C127.7582,74.2653 127.9812,74.4893 127.9812,74.7653 L127.9812,76.9913 C127.9812,77.2673 127.7582,77.4913 127.4812,77.4913 L115.8232,77.4913 C115.5472,77.4913 115.3232,77.7143 115.3232,77.9913 L115.3232,87.9163 C115.3232,88.1923 115.0992,88.4163 114.8232,88.4163 L112.5172,88.4163 C112.2412,88.4163 112.0172,88.1923 112.0172,87.9163 L112.0172,62.7113 C112.0172,62.4353 112.2412,62.2113 112.5172,62.2113 L129.2562,62.2113 C129.5322,62.2113 129.7562,62.4353 129.7562,62.7113 L129.7562,64.8563 C129.7562,65.1323 129.5322,65.3563 129.2562,65.3563 L115.8232,65.3563 C115.5472,65.3563 115.3232,65.5803 115.3232,65.8563" id="Fill-1" fill="#0A7CFF"></path>
            <path d="M156.8506,75.3143 C156.8506,69.3473 152.7786,65.0343 147.2956,65.0343 C141.8136,65.0343 137.7416,69.3473 137.7416,75.3143 C137.7416,81.2003 141.8136,85.5133 147.2956,85.5133 C152.7786,85.5133 156.8506,81.2003 156.8506,75.3143 M134.1946,75.3143 C134.1946,67.4123 139.7166,61.7283 147.2956,61.7283 C154.8746,61.7283 160.3976,67.3723 160.3976,75.3143 C160.3976,83.2153 154.8746,88.8993 147.2956,88.8993 C139.7166,88.8993 134.1946,83.2153 134.1946,75.3143" id="Fill-3" fill="#0A7CFF"></path>
            <path d="M178.624,74.4676 C181.526,74.4676 183.461,72.5716 183.461,69.9916 C183.461,67.4116 181.526,65.4376 178.785,65.4376 L170.899,65.4376 C170.623,65.4376 170.399,65.6606 170.399,65.9376 L170.399,73.9676 C170.399,74.2436 170.623,74.4676 170.899,74.4676 L178.624,74.4676 Z M186.748,88.4156 L183.768,88.4156 C183.579,88.4156 183.407,88.3106 183.322,88.1426 L178.117,77.8856 C178.032,77.7176 177.859,77.6126 177.671,77.6126 L170.899,77.6126 C170.623,77.6126 170.399,77.8356 170.399,78.1126 L170.399,87.9156 C170.399,88.1926 170.176,88.4156 169.899,88.4156 L167.594,88.4156 C167.317,88.4156 167.094,88.1926 167.094,87.9156 L167.094,62.7116 C167.094,62.4356 167.317,62.2116 167.594,62.2116 L178.624,62.2116 C183.461,62.2116 186.848,65.3966 186.848,69.9116 C186.848,73.1846 185.087,75.7386 182.212,76.9296 C181.937,77.0436 181.808,77.3596 181.945,77.6226 L187.191,87.6846 C187.365,88.0176 187.124,88.4156 186.748,88.4156 L186.748,88.4156 Z" id="Fill-5" fill="#0A7CFF"></path>
            <path d="M241.3604,85.6913 L241.3604,87.9163 C241.3604,88.1923 241.1364,88.4163 240.8604,88.4163 L223.3164,88.4163 C223.0404,88.4163 222.8164,88.1923 222.8164,87.9163 L222.8164,62.7123 C222.8164,62.4353 223.0404,62.2123 223.3164,62.2123 L240.6994,62.2123 C240.9754,62.2123 241.1994,62.4353 241.1994,62.7123 L241.1994,64.8563 C241.1994,65.1323 240.9754,65.3563 240.6994,65.3563 L226.6224,65.3563 C226.3454,65.3563 226.1224,65.5803 226.1224,65.8563 L226.1224,73.1613 C226.1224,73.4373 226.3454,73.6613 226.6224,73.6613 L238.6034,73.6613 C238.8804,73.6613 239.1034,73.8843 239.1034,74.1613 L239.1034,76.3453 C239.1034,76.6223 238.8804,76.8453 238.6034,76.8453 L226.6224,76.8453 C226.3454,76.8453 226.1224,77.0693 226.1224,77.3453 L226.1224,84.6913 C226.1224,84.9673 226.3454,85.1913 226.6224,85.1913 L240.8604,85.1913 C241.1364,85.1913 241.3604,85.4153 241.3604,85.6913" id="Fill-7" fill="#0A7CFF"></path>
            <path d="M212.0186,82.0487 C211.8566,82.0487 211.7076,82.1317 211.6156,82.2647 C210.2356,84.2507 207.9396,85.5137 205.2346,85.5137 C199.9946,85.5137 196.0426,81.1587 196.0426,75.2737 C196.0426,69.3877 199.8326,65.0337 205.0736,65.0337 C207.6326,65.0337 209.9106,66.3047 211.2986,68.2847 C211.3916,68.4167 211.5396,68.4987 211.7016,68.4987 L215.1336,68.4987 C215.4986,68.4987 215.7536,68.1127 215.5886,67.7877 C213.7306,64.1237 209.7376,61.7287 205.1546,61.7287 C197.8176,61.7287 192.4956,67.4527 192.4956,75.3547 C192.4956,83.1747 197.8976,88.8997 205.2346,88.8997 C209.6916,88.8997 213.7376,86.4817 215.6806,82.7657 C215.8516,82.4397 215.5966,82.0487 215.2286,82.0487 L212.0186,82.0487 Z" id="Fill-9" fill="#0A7CFF"></path>
            <path d="M15.3203,61.8045 L11.9243,61.8045 C11.6293,61.8045 11.3543,61.9385 11.1723,62.1725 C10.9893,62.4055 10.9243,62.7015 10.9963,62.9885 C15.7403,82.1535 32.8573,95.5385 52.6233,95.5385 C53.4883,95.5385 54.4243,95.5025 55.4813,95.4295 C55.9783,95.3965 56.3683,94.9785 56.3683,94.4795 L56.3683,90.8205 C56.3683,90.5575 56.2583,90.3035 56.0643,90.1255 C55.8723,89.9475 55.6093,89.8565 55.3463,89.8765 C54.3503,89.9515 53.4593,89.9885 52.6233,89.9885 C36.0083,89.9885 21.2393,78.8325 16.7073,62.8615 C16.5303,62.2395 15.9603,61.8045 15.3203,61.8045" id="Fill-11" fill="#0A7CFF"></path>
            <path d="M50.3008,36.5106 C50.8088,36.4836 51.2068,36.0696 51.2068,35.5686 L51.2068,31.9146 C51.2068,31.6566 51.0998,31.4036 50.9118,31.2236 C50.7248,31.0426 50.4518,30.9426 50.2228,30.9586 C46.3838,31.1046 42.7388,32.8646 40.2198,35.7906 C37.6708,38.7506 36.5068,42.5326 36.9428,46.4396 C37.6548,52.8126 42.7968,57.9536 49.1698,58.6646 C49.7068,58.7246 50.2408,58.7546 50.7718,58.7546 C54.0998,58.7546 57.2648,57.5856 59.8188,55.3876 C62.7428,52.8686 64.5038,49.2236 64.6498,45.3866 C64.6598,45.1286 64.5658,44.8836 64.3848,44.6966 C64.2048,44.5086 63.9528,44.4016 63.6948,44.4016 L60.0398,44.4016 C59.5378,44.4016 59.1238,44.7996 59.0988,45.3076 C58.8598,49.7086 55.1388,53.2036 50.7488,53.2036 C50.6718,53.2036 50.5938,53.2026 50.5158,53.1996 C46.3898,53.0826 42.5258,49.2196 42.4078,45.0936 C42.2798,40.6036 45.8218,36.7526 50.3008,36.5106" id="Fill-13" fill="#0A7CFF"></path>
            <path d="M69.0254,13.2508 C68.5844,13.0668 68.0834,13.1168 67.6834,13.3838 C67.2754,13.6558 67.0324,14.1088 67.0324,14.5978 L67.0324,17.3298 C67.0324,17.8948 67.3684,18.4098 67.8874,18.6448 C81.2374,24.6468 89.8634,37.9738 89.8634,52.5978 C89.8634,62.4838 86.0104,71.6358 79.4634,78.4188 C75.7524,72.1768 70.0784,67.4208 63.3274,64.9358 C70.9214,60.1658 75.2244,51.4598 74.3474,42.4818 C73.3694,32.4598 66.1614,24.1548 56.4104,21.8168 C48.8874,20.0138 41.2284,21.8298 35.3924,26.8008 C35.0684,27.0768 34.8824,27.4828 34.8824,27.9148 L34.8824,32.9328 C34.8824,33.3408 35.1304,33.6908 35.5144,33.8258 C35.8924,33.9598 36.3114,33.8428 36.5694,33.5218 C40.9584,28.0268 47.9724,25.5908 54.8814,27.1608 C62.5304,28.9018 68.2784,35.6088 68.8614,43.4718 C69.2414,48.5778 67.5364,53.4508 64.0614,57.1928 C60.6304,60.8878 55.7824,63.0068 50.7564,63.0068 L49.7464,63.0108 L49.7464,63.0158 C41.1834,63.1768 32.9774,66.8898 27.1724,73.2458 C26.8414,73.6078 26.8374,74.1598 27.1614,74.5288 C27.9794,75.4598 28.8564,76.3628 29.7664,77.2138 C29.9544,77.3888 30.2184,77.4738 30.4514,77.4678 C30.7074,77.4568 30.9524,77.3408 31.1244,77.1488 C36.0264,71.6888 43.0254,68.5578 50.3274,68.5578 L52.5204,68.5578 C62.0514,68.5578 70.7154,73.7658 75.2424,82.1668 C72.6144,84.1668 69.7044,85.8588 66.5244,87.1378 C65.1394,87.6938 63.7064,88.1718 62.2664,88.5568 C61.6294,88.7248 61.1844,89.2998 61.1844,89.9528 L61.1844,98.6008 C61.1844,98.8698 60.9894,99.1058 60.7304,99.1508 C58.0684,99.6108 55.3484,99.8438 52.6464,99.8438 C26.5944,99.8438 5.4004,78.6488 5.4004,52.5978 C5.4004,49.8668 5.6414,47.1048 6.1184,44.3848 C9.4974,25.1148 24.6854,9.7538 43.9764,6.2158 L43.9764,14.6068 C43.9764,15.0378 44.1674,15.4418 44.4984,15.7168 C44.8354,15.9968 45.2764,16.1098 45.7104,16.0278 C46.9634,15.7918 48.2464,15.6188 49.5214,15.5128 C53.3674,15.1908 57.0744,15.4558 60.7094,16.2608 C61.1534,16.3588 61.6004,16.2538 61.9464,15.9758 C62.2874,15.7008 62.4834,15.2918 62.4834,14.8528 L62.4834,12.3158 C62.4834,11.6288 61.9994,11.0288 61.3314,10.8908 C58.4364,10.2868 55.5144,9.9798 52.6464,9.9798 C51.7784,9.9798 50.2554,10.0628 49.3774,10.0658 L49.3774,1.4488 C49.3774,1.0198 49.1884,0.6148 48.8604,0.3388 C48.5334,0.0628 48.0994,-0.0502 47.6784,0.0208 L43.5804,0.7318 C21.8094,4.5148 4.6174,21.6828 0.7984,43.4508 C0.2684,46.4768 0.0004,49.5538 0.0004,52.5978 C0.0004,81.6268 23.6174,105.2438 52.6464,105.2438 C55.9624,105.2438 59.2984,104.9288 62.5614,104.3068 L65.4074,103.7638 C66.0894,103.6328 66.5854,103.0338 66.5854,102.3398 L66.5854,93.2638 C66.5854,93.0338 66.7334,92.8278 66.9534,92.7488 C67.4864,92.5598 68.0154,92.3578 68.5394,92.1478 C84.7734,85.6198 95.2634,70.0958 95.2634,52.5978 C95.2634,35.3138 84.9634,19.8698 69.0254,13.2508" id="Fill-15" fill="#0A7CFF"></path>
            <path d="M117.4912,37.6649 L129.0642,37.6649 C129.2022,37.6649 129.3142,37.5529 129.3142,37.4149 L129.3142,33.2879 C129.3142,33.1489 129.2022,33.0379 129.0642,33.0379 L117.4912,33.0379 C116.9382,33.0379 116.4912,32.5899 116.4912,32.0379 L116.4912,26.5649 C116.4912,26.4279 116.6022,26.3149 116.7412,26.3149 L131.1352,26.3149 C131.2722,26.3149 131.3852,26.2039 131.3852,26.0649 L131.3852,21.9769 C131.3852,21.8399 131.2722,21.7269 131.1352,21.7269 L111.9932,21.7269 C111.8542,21.7269 111.7432,21.8399 111.7432,21.9769 L111.7432,48.8449 C111.7432,48.9819 111.8542,49.0949 111.9932,49.0949 L131.2942,49.0949 C131.4312,49.0949 131.5442,48.9819 131.5442,48.8449 L131.5442,44.6779 C131.5442,44.5399 131.4312,44.4279 131.2942,44.4279 L116.7412,44.4279 C116.6022,44.4279 116.4912,44.3159 116.4912,44.1779 L116.4912,38.6649 C116.4912,38.1119 116.9382,37.6649 117.4912,37.6649" id="Fill-17" fill="#2A3039"></path>
            <path d="M135.9707,49.0946 L140.2177,49.0946 C140.3557,49.0946 140.4677,48.9826 140.4677,48.8446 L140.4677,39.3026 C140.4677,38.7496 140.9147,38.3026 141.4677,38.3026 L152.7237,38.3026 C152.8617,38.3026 152.9737,38.1906 152.9737,38.0526 L152.9737,33.8846 C152.9737,33.7466 152.8617,33.6346 152.7237,33.6346 L141.4677,33.6346 C140.9147,33.6346 140.4677,33.1876 140.4677,32.6346 L140.4677,26.5656 C140.4677,26.4276 140.5787,26.3156 140.7177,26.3156 L154.4757,26.3156 C154.6137,26.3156 154.7257,26.2036 154.7257,26.0656 L154.7257,21.9776 C154.7257,21.8396 154.6137,21.7276 154.4757,21.7276 L135.9707,21.7276 C135.8317,21.7276 135.7207,21.8396 135.7207,21.9776 L135.7207,48.8446 C135.7207,48.9826 135.8317,49.0946 135.9707,49.0946" id="Fill-19" fill="#2A3039"></path>
            <path d="M158.6729,49.0946 L162.9209,49.0946 C163.0589,49.0946 163.1709,48.9826 163.1709,48.8446 L163.1709,39.3026 C163.1709,38.7496 163.6179,38.3026 164.1709,38.3026 L175.4259,38.3026 C175.5639,38.3026 175.6759,38.1906 175.6759,38.0526 L175.6759,33.8846 C175.6759,33.7466 175.5639,33.6346 175.4259,33.6346 L164.1709,33.6346 C163.6179,33.6346 163.1709,33.1876 163.1709,32.6346 L163.1709,26.5656 C163.1709,26.4276 163.2819,26.3156 163.4209,26.3156 L177.1779,26.3156 C177.3159,26.3156 177.4279,26.2036 177.4279,26.0656 L177.4279,21.9776 C177.4279,21.8396 177.3159,21.7276 177.1779,21.7276 L158.6729,21.7276 C158.5339,21.7276 158.4229,21.8396 158.4229,21.9776 L158.4229,48.8446 C158.4229,48.9826 158.5339,49.0946 158.6729,49.0946" id="Fill-21" fill="#2A3039"></path>
            <path d="M186.873,37.6649 L198.446,37.6649 C198.584,37.6649 198.696,37.5529 198.696,37.4149 L198.696,33.2879 C198.696,33.1489 198.584,33.0379 198.446,33.0379 L186.873,33.0379 C186.32,33.0379 185.873,32.5899 185.873,32.0379 L185.873,26.5649 C185.873,26.4279 185.984,26.3149 186.123,26.3149 L200.517,26.3149 C200.654,26.3149 200.767,26.2039 200.767,26.0649 L200.767,21.9769 C200.767,21.8399 200.654,21.7269 200.517,21.7269 L181.375,21.7269 C181.236,21.7269 181.125,21.8399 181.125,21.9769 L181.125,48.8449 C181.125,48.9819 181.236,49.0949 181.375,49.0949 L200.676,49.0949 C200.813,49.0949 200.926,48.9819 200.926,48.8449 L200.926,44.6779 C200.926,44.5399 200.813,44.4279 200.676,44.4279 L186.123,44.4279 C185.984,44.4279 185.873,44.3159 185.873,44.1779 L185.873,38.6649 C185.873,38.1119 186.32,37.6649 186.873,37.6649" id="Fill-23" fill="#2A3039"></path>
            <path d="M231.709,21.9774 L231.709,26.1454 C231.709,26.2844 231.82,26.3954 231.959,26.3954 L240.187,26.3954 C240.738,26.3954 241.187,26.8434 241.187,27.3954 L241.187,48.8444 C241.187,48.9824 241.298,49.0944 241.437,49.0944 L245.685,49.0944 C245.822,49.0944 245.935,48.9824 245.935,48.8444 L245.935,27.3954 C245.935,26.8434 246.382,26.3954 246.935,26.3954 L255.083,26.3954 C255.221,26.3954 255.333,26.2844 255.333,26.1454 L255.333,21.9774 C255.333,21.8394 255.221,21.7274 255.083,21.7274 L231.959,21.7274 C231.82,21.7274 231.709,21.8394 231.709,21.9774" id="Fill-25" fill="#2A3039"></path>
            <path d="M223.5322,42.1864 C223.2422,42.1864 222.9762,42.3194 222.7812,42.5334 C221.5272,43.9094 219.7072,44.7464 217.6312,44.7464 C212.8772,44.7464 209.2922,40.7154 209.2922,35.3714 C209.2922,29.9394 212.7312,25.9974 217.4712,25.9974 C219.4562,25.9974 221.2652,26.8734 222.5192,28.2804 C222.7142,28.4994 222.9842,28.6354 223.2772,28.6354 L228.5832,28.6354 C228.7622,28.6354 228.8892,28.4484 228.8182,28.2834 C227.0112,24.0994 222.6082,21.2494 217.5522,21.2494 C209.8772,21.2494 204.3052,27.2224 204.3052,35.4514 C204.3052,43.6334 209.9102,49.5724 217.6312,49.5724 C222.6652,49.5724 227.0072,46.7424 228.8912,42.5414 C228.9662,42.3764 228.8392,42.1864 228.6582,42.1864 L223.5322,42.1864 Z" id="Fill-27" fill="#2A3039"></path>
        </g>
    </g>
</svg>